{"title":"Rassmeshi.komika.E7.IPTVRip.avi","uid":6318798,"size":1345958028,"categoryP":"video","categoryS":"tv_shows","magnet":"?xt=urn:btih:5dcba2e13c1a2f4f9c4c86624cb876feb3f44991&amp;dn=Rassmeshi.komika.E7.IPTVRip.avi&amp;tr=udp%3A%2F%2Ftracker.openbittorrent.com%3A80&amp;tr=udp%3A%2F%2Fopen.demonii.com%3A1337&amp;tr=udp%3A%2F%2Ftracker.coppersurfer.tk%3A6969&amp;tr=udp%3A%2F%2Fexodus.desync.com%3A6969","seeders":0,"leechers":0,"uploader":"tytandtam","files":1,"time":1302795530,"description":"   General\n      Complete name : Rassmeshi.komika.E7.IPTVRip.avi\n      Format : AVI\n      Format/Info : Audio Video Interleave\n      File size : 1.25 GiB\n      Duration : 45mn 4s\n      Overall bit rate : 3 981 Kbps\n      Writing library : MPlayer\n   Video #0\n      ID : 0\n      Format : MPEG-4 Visual\n      Format profile : Simple@L1\n      Format settings, BVOP : No\n      Format settings, QPel : No\n      Format settings, GMC : No warppoints\n      Format settings, Matrix : Default (H.263)\n      Codec ID : DX50\n      Codec ID/Hint : DivX 5\n      Duration : 45mn 4s\n      Bit rate : 3 713 Kbps\n      Width : 720 pixels\n      Height : 576 pixels\n      Display aspect ratio : 5:4\n      Frame rate : 25.000 fps\n      Standard : PAL\n      Resolution : 24 bits\n      Colorimetry : 4:2:0\n      Scan type : Interlaced\n      Scan order : Top Field First\n      Bits/(Pixel*Frame) : 0.358\n      Stream size : 1.17 GiB (93%)\n      Writing library : Lavc52.30.1\n   Audio #1\n      ID : 1\n      Format : MPEG Audio\n      Format version : Version 1\n      Format profile : Layer 3\n      Codec ID : 55\n      Codec ID/Hint : MP3\n      Duration : 45mn 4s\n      Bit rate mode : Constant\n      Bit rate : 256 Kbps\n      Channel(s) : 2 channels\n      Sampling rate : 44.1 KHz\n      Resolution : 16 bits\n      Stream size : 82.5 MiB (6%)\n      Alignment : Aligned on interleaves\n      Interleave, duration : 26 ms (0.65 video frame)\n      Interleave, preload duration : 809 ms\n\n(c) tyt and tam","torrent":{"xt":"urn:btih:5dcba2e13c1a2f4f9c4c86624cb876feb3f44991","amp;dn":"Rassmeshi.komika.E7.IPTVRip.avi","amp;tr":["udp%3A%2F%2Ftracker.openbittorrent.com%3A80","udp%3A%2F%2Fopen.demonii.com%3A1337","udp%3A%2F%2Ftracker.coppersurfer.tk%3A6969","udp%3A%2F%2Fexodus.desync.com%3A6969"],"infoHash":"5dcba2e13c1a2f4f9c4c86624cb876feb3f44991","infoHashBuffer":{"type":"Buffer","data":[93,203,162,225,60,26,47,79,156,76,134,98,76,184,118,254,179,244,73,145]},"announce":[],"urlList":[]}}